#!OML:ASF F:\VICON\USERDATA\INSTALL\rory7\rory7.ASF
:FULLY-SPECIFIED
:DEGREES
689
root -0.020114 18.8322 4.16202 -3.57627 -5.02512 0.0408853
lowerback 5.95011 1.67233 -0.416369
upperback -0.357734 2.13597 -1.69823
thorax -3.65555 1.05324 -1.71134
lowerneck -7.61135 -5.86032 -6.2595
upperneck 3.16153 -7.72108 9.03979
head 2.77836 -3.62856 3.35329
rclavicle -2.79541e-015 -1.11319e-014
rhumerus 35.9361 -0.558375 -48.5257
rradius 123.143
rwrist 14.1558
rhand -47.4225 18.542
rfingers 7.12502
rthumb -20.1134 -10.4369
lclavicle -2.79541e-015 -1.11319e-014
lhumerus -34.9748 15.3441 68.6715
lradius 20.9785
lwrist -9.1831
lhand -24.8936 22.4228
lfingers 7.12502
lthumb 1.61433 52.3964
rfemur 0 0 0
rtibia 0
rfoot 0 0
rtoes 0
lfemur 6.79171 -10.1309 -19.012
ltibia 10.9375
lfoot -13.8139 21.4854
ltoes -4.2991
690
root -0.0198145 18.8317 4.16017 -3.58903 -5.04306 0.070697
lowerback 5.95845 1.67586 -0.4484
upperback -0.333089 2.13871 -1.69555
thorax -3.63593 1.05537 -1.69057
lowerneck -7.63352 -5.86481 -6.21271
upperneck 3.09799 -7.71726 8.89756
head 2.75467 -3.63104 3.30333
rclavicle 9.81499e-016 -1.74931e-014
rhumerus 35.814 -0.411296 -48.4595
rradius 123.215
rwrist 13.8274
rhand -47.274 18.6444
rfingers 7.12502
rthumb -19.9706 -10.3494
lclavicle 9.81499e-016 -1.74931e-014
lhumerus -34.998 15.1272 68.836
lradius 21.1021
lwrist -8.91472
lhand -25.1964 22.0533
lfingers 7.12502
lthumb 1.32192 52.029
rfemur 0 0 0
rtibia 0
rfoot 0 0
rtoes 0
lfemur 6.82121 -10.1164 -19.0454
ltibia 10.8874
lfoot -13.7807 21.5202
ltoes -4.37062
691
root -0.0189935 18.8313 4.15898 -3.58178 -5.01287 0.127173
lowerback 5.95945 1.66581 -0.505343
upperback -0.332542 2.12094 -1.70318
thorax -3.63816 1.04753 -1.66498
lowerneck -7.62611 -5.87096 -6.1595
upperneck 3.06729 -7.72395 8.81616
head 2.73921 -3.63693 3.27047
rclavicle -6.34869e-015 4.77083e-015
rhumerus 35.6732 -0.247076 -48.4494
rradius 123.325
rwrist 13.5386
rhand -47.1849 18.7417
rfingers 7.12502
rthumb -19.8851 -10.261
lclavicle -6.34869e-015 4.77083e-015
lhumerus -35.0358 14.6428 69.1465
lradius 21.3459
lwrist -8.10142
lhand -25.5861 21.9625
lfingers 7.12502
lthumb 0.945476 51.9401
rfemur 0 0 0
rtibia 0
rfoot 0 0
rtoes 0
lfemur 6.82312 -10.0614 -19.0937
ltibia 10.8344
lfoot -13.6853 21.4578
ltoes -4.31746
692
root -0.0191654 18.8317 4.15873 -3.58903 -4.99473 0.113093
lowerback 5.96774 1.65777 -0.505214
upperback -0.335823 2.11053 -1.68983
thorax -3.64695 1.04242 -1.65071
lowerneck -7.54813 -5.84919 -6.19201
upperneck 3.04016 -7.69785 8.88658
head 2.72078 -3.62446 3.30097
rclavicle -2.14936e-014 4.77083e-015
rhumerus 35.5184 -0.0691805 -48.4445
rradius 123.486
rwrist 13.2023
rhand -47.1298 18.6385
rfingers 7.12502
rthumb -19.8321 -10.3697
lclavicle -2.14936e-014 4.77083e-015
lhumerus -34.9871 14.4846 69.2941
lradius 21.4325
lwrist -7.77376
lhand -25.7515 22.1444
lfingers 7.12502
lthumb 0.785759 52.1227
rfemur 0 0 0
rtibia 0
rfoot 0 0
rtoes 0
lfemur 6.8612 -10.0244 -19.0689
ltibia 10.7711
lfoot -13.6241 21.4123
ltoes -4.20276
693
root -0.0161654 18.8322 4.16257 -3.56378 -5.07072 0.120452
lowerback 5.87126 1.67725 -0.477017
upperback -0.331294 2.14012 -1.68978
thorax -3.58628 1.05695 -1.66552
lowerneck -7.46927 -5.80539 -6.24032
upperneck 2.99811 -7.63959 8.95665
head 2.69585 -3.5965 3.33606
rclavicle 7.76503e-015 4.77083e-015
rhumerus 35.389 0.109446 -48.393
rradius 123.596
rwrist 13.0049
rhand -47.1359 18.2549
rfingers 7.12502
rthumb -19.8379 -10.7527
lclavicle 7.76503e-015 4.77083e-015
lhumerus -34.8144 14.9438 69.0934
lradius 21.1618
lwrist -8.64378
lhand -25.7622 22.3609
lfingers 7.12502
lthumb 0.775411 52.3392
rfemur 0 0 0
rtibia 0
rfoot 0 0
rtoes 0
lfemur 6.89357 -10.1084 -19.1214
ltibia 10.7201
lfoot -13.7058 21.5422
ltoes -4.17913
694
root -0.00976025 18.8327 4.16974 -3.48476 -5.17308 0.209826
lowerback 5.68526 1.70364 -0.486419
upperback -0.341791 2.17641 -1.71806
thorax -3.49096 1.07545 -1.68612
lowerneck -7.44858 -5.76466 -6.26871
upperneck 3.0004 -7.58422 8.97328
head 2.69072 -3.56935 3.34955
rclavicle 1.55549e-014 -1.35174e-014
rhumerus 35.2582 0.289652 -48.318
rradius 123.665
rwrist 12.9231
rhand -47.1978 17.7047
rfingers 7.12502
rthumb -19.8975 -11.2967
lclavicle 1.55549e-014 -1.35174e-014
lhumerus -34.7383 15.5801 68.7229
lradius 20.8628
lwrist -10.0218
lhand -25.7447 22.5179
lfingers 7.12502
lthumb 0.792276 52.4962
rfemur 0 0 0
rtibia 0
rfoot 0 0
rtoes 0
lfemur 6.87235 -10.2702 -19.2956
ltibia 10.6815
lfoot -13.8133 21.7778
ltoes -4.14475
695
root -0.00662393 18.8335 4.17072 -3.44114 -5.23689 0.191364
lowerback 5.60981 1.72129 -0.425879
upperback -0.334776 2.20558 -1.71185
thorax -3.43853 1.08924 -1.71315
lowerneck -7.45259 -5.74661 -6.31007
upperneck 2.97202 -7.55506 8.99386
head 2.68309 -3.55502 3.36439
rclavicle 2.93829e-014 -4.77083e-014
rhumerus 35.1419 0.420882 -48.2875
rradius 123.77
rwrist 12.6987
rhand -47.1358 17.4975
rfingers 7.12502
rthumb -19.8378 -11.51
lclavicle 2.93829e-014 -4.77083e-014
lhumerus -34.7082 15.7954 68.6065
lradius 20.7795
lwrist -10.5861
lhand -25.5299 22.0495
lfingers 7.12502
lthumb 0.9998 52.0269
rfemur 0 0 0
rtibia 0
rfoot 0 0
rtoes 0
lfemur 6.86683 -10.3386 -19.3035
ltibia 10.6291
lfoot -13.8229 21.9146
ltoes -4.03002
696
root -0.00524184 18.8337 4.16634 -3.42076 -5.23646 0.166435
lowerback 5.59966 1.72779 -0.385634
upperback -0.320747 2.21794 -1.69476
thorax -3.41713 1.09497 -1.71836
lowerneck -7.47034 -5.7314 -6.28041
upperneck 2.9488 -7.53063 8.92268
head 2.67303 -3.54464 3.33949
rclavicle 1.92324e-014 -7.95139e-015
rhumerus 35.0385 0.524774 -48.2885
rradius 123.901
rwrist 12.52
rhand -46.8442 17.2316
rfingers 7.12502
rthumb -19.5575 -11.8047
lclavicle 1.92324e-014 -7.95139e-015
lhumerus -34.654 15.644 68.7717
lradius 20.8332
lwrist -10.3491
lhand -24.9029 21.5937
lfingers 7.12502
lthumb 1.60532 51.5675
rfemur 0 0 0
rtibia 0
rfoot 0 0
rtoes 0
lfemur 6.83281 -10.3297 -19.2639
ltibia 10.604
lfoot -13.7975 21.9217
ltoes -3.97239
697
root -0.00371317 18.8336 4.16389 -3.40566 -5.19558 0.186332
lowerback 5.58329 1.71466 -0.38883
upperback -0.317287 2.20064 -1.69102
thorax -3.40506 1.08653 -1.71059
lowerneck -7.51235 -5.68597 -6.21506
upperneck 3.00205 -7.47137 8.82629
head 2.68476 -3.51575 3.30185
rclavicle -1.67228e-014 3.18055e-015
rhumerus 34.9271 0.658766 -48.267
rradius 123.979
rwrist 12.4672
rhand -46.5685 16.6933
rfingers 7.12502
rthumb -19.2924 -12.3698
lclavicle -1.67228e-014 3.18055e-015
lhumerus -34.6546 15.4428 68.951
lradius 20.9214
lwrist -9.92179
lhand -24.4231 21.7441
lfingers 7.12502
lthumb 2.06872 51.7139
rfemur 0 0 0
rtibia 0
rfoot 0 0
rtoes 0
lfemur 6.78237 -10.3406 -19.2795
ltibia 10.6269
lfoot -13.7951 21.9037
ltoes -4.00368
698
root -0.00296827 18.8335 4.16199 -3.40356 -5.19842 0.150202
lowerback 5.59604 1.70744 -0.332296
upperback -0.30372 2.19499 -1.68672
thorax -3.39638 1.08284 -1.73747
lowerneck -7.50383 -5.63263 -6.18718
upperneck 2.97849 -7.40069 8.81752
head 2.66964 -3.48115 3.29959
rclavicle -5.01931e-015 -1.23246e-014
rhumerus 34.8081 0.785575 -48.2365
rradius 124.032
rwrist 12.378
rhand -46.4808 16.5954
rfingers 7.12502
rthumb -19.2081 -12.4761
lclavicle -5.01931e-015 -1.23246e-014
lhumerus -34.64 15.2467 69.0828
lradius 20.9684
lwrist -9.41969
lhand -24.5932 21.7628
lfingers 7.12502
lthumb 1.90442 51.734
rfemur 0 0 0
rtibia 0
rfoot 0 0
rtoes 0
lfemur 6.76189 -10.3317 -19.2377
ltibia 10.6536
lfoot -13.7948 21.9038
ltoes -4.03474
699
root -0.00264045 18.8327 4.16011 -3.42178 -5.24198 0.132493
lowerback 5.61292 1.72498 -0.304821
upperback -0.270926 2.22073 -1.67874
thorax -3.37056 1.09546 -1.74657
lowerneck -7.38174 -5.59316 -6.1623
upperneck 2.78078 -7.34268 8.81345
head 2.58538 -3.45784 3.30343
rclavicle -1.55052e-014 1.51076e-014
rhumerus 34.6816 0.881924 -48.1846
rradius 124.106
rwrist 12.2781
rhand -46.4573 16.6169
rfingers 7.12502
rthumb -19.1855 -12.4568
lclavicle -1.55052e-014 1.51076e-014
lhumerus -34.5835 15.1299 69.1898
lradius 20.9857
lwrist -9.15744
lhand -24.7852 21.6938
lfingers 7.12502
lthumb 1.71906 51.6666
rfemur 0 0 0
rtibia 0
rfoot 0 0
rtoes 0
lfemur 6.76168 -10.2919 -19.218
ltibia 10.688
lfoot -13.805 21.9
ltoes -3.92655
700
root -0.00246113 18.8326 4.15942 -3.44142 -5.27518 0.13576
lowerback 5.63443 1.74445 -0.306008
upperback -0.253802 2.24694 -1.66737
thorax -3.36474 1.10868 -1.73672
lowerneck -7.27188 -5.56809 -6.23935
upperneck 2.46139 -7.28332 8.5809
head 2.73192 -3.45772 3.61515
rclavicle -5.2181e-016 1.86858e-014
rhumerus 34.5498 0.987364 -48.1514
rradius 124.197
rwrist 12.122
rhand -46.2317 16.4114
rfingers 7.12502
rthumb -18.9686 -12.6836
lclavicle -5.2181e-016 1.86858e-014
lhumerus -34.5311 15.1589 69.2255
lradius 20.9375
lwrist -9.22154
lhand -24.7238 21.618
lfingers 7.12502
lthumb 1.77833 51.5904
rfemur 0 0 0
rtibia 0
rfoot 0 0
rtoes 0
lfemur 6.76636 -10.2648 -19.2283
ltibia 10.7315
lfoot -13.8233 21.9128
ltoes -3.89499
701
root -0.00171601 18.8334 4.15689 -3.43168 -5.2968 0.148529
lowerback 5.6693 1.74689 -0.318266
upperback -0.264329 2.24892 -1.66221
thorax -3.39584 1.1097 -1.72625
lowerneck -7.27769 -5.55912 -6.19871
upperneck 2.44143 -7.26946 8.51088
head 2.71896 -3.45228 3.58336
rclavicle 5.81445e-015 -4.77083e-015
rhumerus 34.4495 1.11753 -48.1576
rradius 124.299
rwrist 12.0417
rhand -46.0756 16.4656
rfingers 7.12502
rthumb -18.8184 -12.6441
lclavicle 5.81445e-015 -4.77083e-015
lhumerus -34.5361 15.2027 69.2241
lradius 20.8943
lwrist -9.26522
lhand -24.6781 21.4956
lfingers 7.12502
lthumb 1.82243 51.4676
rfemur 0 0 0
rtibia 0
rfoot 0 0
rtoes 0
lfemur 6.72455 -10.2747 -19.2506
ltibia 10.7811
lfoot -13.8225 21.977
ltoes -4.13079
702
root -0.00355403 18.8341 4.14979 -3.43608 -5.26109 0.14868
lowerback 5.75592 1.72437 -0.360682
upperback -0.262049 2.21577 -1.63462
thorax -3.44572 1.09387 -1.67439
lowerneck -7.33219 -5.54273 -6.14633
upperneck 2.44558 -7.24253 8.38201
head 2.71837 -3.44048 3.52846
rclavicle 1.70458e-014 3.18055e-015
rhumerus 34.4191 1.23806 -48.1138
rradius 124.37
rwrist 12.121
rhand -46.2324 16.4375
rfingers 7.12502
rthumb -18.9692 -12.6576
lclavicle 1.70458e-014 3.18055e-015
lhumerus -34.5992 15.1008 69.3301
lradius 21.0357
lwrist -9.08732
lhand -24.7586 21.5011
lfingers 7.12502
lthumb 1.74471 51.4737
rfemur 0 0 0
rtibia 0
rfoot 0 0
rtoes 0
lfemur 6.65664 -10.2396 -19.221
ltibia 10.857
lfoot -13.8055 21.8976
ltoes -4.22295
703
root -0.00775008 18.8344 4.13978 -3.45668 -5.15596 0.100914
lowerback 5.90115 1.68251 -0.373742
upperback -0.276231 2.15849 -1.58778
thorax -3.5457 1.0654 -1.61941
lowerneck -7.34353 -5.47962 -6.24742
upperneck 2.49457 -7.15511 8.4591
head 2.73959 -3.39549 3.58035
rclavicle 9.14409e-015 -1.74931e-014
rhumerus 34.3893 1.35222 -48.0411
rradius 124.423
rwrist 12.1099
rhand -46.3527 16.1193
rfingers 7.12502
rthumb -19.0849 -12.9644
lclavicle 9.14409e-015 -1.74931e-014
lhumerus -34.7114 15.0025 69.4248
lradius 21.3131
lwrist -9.18441
lhand -24.9659 21.2259
lfingers 7.12502
lthumb 1.54445 51.2001
rfemur 0 0 0
rtibia 0
rfoot 0 0
rtoes 0
lfemur 6.61206 -10.145 -19.1023
ltibia 10.9047
lfoot -13.7752 21.6524
ltoes -4.14599
704
root -0.00754733 18.8336 4.13635 -3.45606 -5.16077 0.0515428
lowerback 5.94476 1.68272 -0.311366
upperback -0.286405 2.1636 -1.55667
thorax -3.57948 1.06687 -1.6245
lowerneck -7.32266 -5.44317 -6.33416
upperneck 2.684 -7.12261 8.83928
head 2.53743 -3.35247 3.35439
rclavicle -1.30577e-014 7.15625e-015
rhumerus 34.3563 1.4251 -47.9741
rradius 124.467
rwrist 12.0475
rhand -46.4693 16.1441
rfingers 7.12502
rthumb -19.1971 -12.9285
lclavicle -1.30577e-014 7.15625e-015
lhumerus -34.7331 15.0895 69.4083
lradius 21.3967
lwrist -9.73735
lhand -25.1978 20.6975
lfingers 7.12502
lthumb 1.32054 50.6732
rfemur 0 0 0
rtibia 0
rfoot 0 0
rtoes 0
lfemur 6.63332 -10.1813 -19.0523
ltibia 10.8778
lfoot -13.8188 21.6607
ltoes -4.10672
